# AST/ASF file generated using VICON BodyLanguage
# -----------------------------------------------
:version 1.10
:name VICON
:units
  mass 1.0
  length 0.45
  angle deg
:documentation
   .ast/.asf automatically generated from VICON data using
   VICON BodyBuilder and BodyLanguage model FoxedUp or BRILLIANT.MOD
:root
   order TX TY TZ RX RY RZ
   axis XYZ
   position 0 0 0  
   orientation 0 0 0 
:bonedata
  begin
     id 1 
     name lhipjoint
     direction 0.54267 -0.795011 0.271047 
     length 2.39899 
     axis 0 0 0  XYZ
  end
  begin
     id 2 
     name lfemur
     direction 0.34202 -0.939693 0  
     length 7.49701  
     axis 0 0 20  XYZ
    dof rx ry rz
    limits (-160.0 20.0)
           (-70.0 70.0)
           (-60.0 70.0)
  end
  begin
     id 3 
     name ltibia
     direction 0.34202 -0.939693 0   
     length 8.1668   
     axis 0 0 20   XYZ
    dof rx
    limits (-10.0 170.0)
  end
  begin
     id 4 
     name lfoot
     direction 0.0736283 -0.202292 0.976554   
     length 2.13544   
     axis -90 7.62852e-016 20   XYZ
    dof rx rz
    limits (-45.0 90.0)
           (-70.0 20.0)
  end
  begin
     id 5 
     name ltoes
     direction 1.53557e-011 -4.22024e-011 1   
     length 1.07411   
     axis -90 7.62852e-016 20   XYZ
    dof rx
    limits (-90.0 20.0)
  end
  begin
     id 6 
     name rhipjoint
     direction -0.538061 -0.797813 0.272002   
     length 2.39057  
     axis 0 0 0  XYZ 
  end
  begin
     id 7 
     name rfemur
     direction -0.34202 -0.939693 0   
     length 7.50152   
     axis 0 0 -20   XYZ
    dof rx ry rz
    limits (-160.0 20.0)
           (-70.0 70.0)
           (-70.0 60.0)
  end
  begin
     id 8 
     name rtibia
     direction -0.34202 -0.939693 0   
     length 8.05793   
     axis 0 0 -20   XYZ
    dof rx
    limits (-10.0 170.0)
 end
 begin
     id 9 
     name rfoot
     direction -0.0765195 -0.210236 0.974652   
     length 2.28698  
     axis -90 -7.62852e-016 -20   XYZ
    dof rx rz
    limits (-45.0 90.0)
           (-20.0 70.0)
  end
  begin
     id 10 
     name rtoes
     direction -1.53542e-011 -4.21847e-011 1   
     length 1.14762   
     axis -90 -7.62852e-016 -20   XYZ
    dof rx
    limits (-90.0 20.0)
  end
  begin
     id 11 
     name lowerback
     direction -0.0217239 0.996592 -0.0795765   
     length 2.08176   
     axis 0 0 0   XYZ
    dof rx ry rz
    limits (-20.0 45.0)
           (-30.0 30.0)
           (-30.0 30.0)
  end
  begin
     id 12 
     name upperback
     direction -0.00563773 0.999651 -0.0258155   
     length 2.08898   
     axis 0 0 0   XYZ
    dof rx ry rz
    limits (-20.0 45.0)
           (-30.0 30.0)
           (-30.0 30.0)
  end
  begin
     id 13 
     name thorax
     direction 0.0032706 0.999923 0.0119599   
     length 2.0968   
     axis 0 0 0   XYZ
    dof rx ry rz
    limits (-20.0 45.0)
           (-30.0 30.0)
           (-30.0 30.0)
  end
  begin
     id 14 
     name lowerneck
     direction -0.0285886 0.99568 0.0883427   
     length 1.81272   
     axis 0 0 0   XYZ
    dof rx ry rz
    limits (-20.0 45.0)
           (-30.0 30.0)
           (-30.0 30.0)
  end
  begin
     id 15 
     name upperneck
     direction 0.0807535 0.97985 -0.18268   
     length 1.82518   
     axis 0 0 0   XYZ
    dof rx ry rz
    limits (-20.0 45.0)
           (-30.0 30.0)
           (-30.0 30.0)
  end
  begin
     id 16
     name head
     direction 0.0236605 0.997053 -0.0729767  
     length 1.84443  
     axis 0 0 0   XYZ
    dof rx ry rz
    limits (-20.0 45.0)
           (-30.0 30.0)
           (-30.0 30.0)
  end
  begin
     id 17 
     name lclavicle
     direction 0.918986 0.39378 -0.0200683  
     length 3.27822  
     axis 0 0 0   XYZ
    dof ry rz
    limits (-20.0 10.0)
           (0.0 20.0)
  end
  begin
     id 18 
     name lhumerus
     direction 1 -4.4897e-011 2.09544e-027   
     length 5.5568   
     axis 180 -30 -90   XYZ
    dof rx ry rz
    limits (-60.0 90.0)
           (-90.0 90.0)
           (-90.0 90.0)
  end
  begin
     id 19
     name lradius
     direction 1 -4.48957e-011 -1.27696e-026   
     length 3.63979   
     axis 180 -30 -90   XYZ
    dof rx
    limits (-10.0 170.0)
  end
  begin
     id 20
     name lwrist
     direction 1 -4.49001e-011 -1.49001e-026   
     length 1.8199   
     axis 9.0955e-015 90 90   XYZ
    dof ry
    limits (-180.0 0.0)
 end
  begin
     id 21 
     name lhand
     direction 1 -4.48709e-011 -2.9758e-026   
     length 0.569419   
     axis 1.90115e-014 90 90   XYZ
    dof rx rz
    limits (-90.0 90.0)
           (-45.0 45.0)
  end
  begin
     id 22 
     name lfingers
     direction 1 -4.49175e-011 -5.96505e-026   
     length 0.45908   
     axis 3.80223e-014 90 90   XYZ
    dof rx
    limits (0.0 90.0)
  end
  begin
     id 23
     name lthumb
     direction 0.707107 -6.34864e-011 0.707107   
     length 0.65915   
     axis -90 45 -3.84942e-014   XYZ
    dof rx rz
    limits (-45.0 45.0)
           (-45.0 45.0)
  end
  begin
     id 24 
     name rclavicle
     direction -0.911913 0.396426 -0.106115   
     length 3.46301  
     axis 0 0 0   XYZ 
    dof ry rz
    limits (-10.0 20.0)
           (-20.0 0.0)
  end
  begin
     id 25 
     name rhumerus
     direction -1 -4.48965e-011 7.78516e-028  
     length 5.34339   
     axis 180 30 90   XYZ
    dof rx ry rz
    limits (-90.0 60.0)
           (-90.0 90.0)
           (-90.0 90.0)
  end
  begin
     id 26 
     name rradius
     direction -1 -4.48948e-011 -5.79823e-027   
     length 3.65101   
     axis 180 30 90   XYZ
    dof rx
    limits (-10.0 170.0)
  end
  begin
     id 27 
     name rwrist
     direction -1 -4.48995e-011 -1.48996e-026   
     length 1.8255   
     axis 9.0955e-015 -90 -90   XYZ
    dof ry
    limits (-180.0 0.0)
  end
  begin
     id 28
     name rhand
     direction -1 -4.48957e-011 -2.97937e-026   
     length 0.694249   
     axis 1.90115e-014 -90 -90   XYZ
    dof rx rz
    limits (-90.0 90.0)
           (-45.0 45.0)
  end
  begin
     id 29
     name rfingers
     direction -1 -4.4898e-011 -5.95943e-026   
     length 0.559721   
     axis 3.80223e-014 -90 -90   XYZ
    dof rx
    limits (0.0 90.0)
  end
  begin
     id 30
     name rthumb
     direction -0.707107 -6.34969e-011 0.707107   
     length 0.803651   
     axis -90 -45 3.84942e-014   XYZ
    dof rx rz
    limits (-45.0 45.0)
           (-45.0 45.0)
  end
:hierarchy
  begin
    root lhipjoint rhipjoint lowerback
    lhipjoint lfemur
    lfemur ltibia
    ltibia lfoot
    lfoot ltoes
    rhipjoint rfemur
    rfemur rtibia
    rtibia rfoot
    rfoot rtoes
    lowerback upperback
    upperback thorax
    thorax lowerneck lclavicle rclavicle
    lowerneck upperneck
    upperneck head
    lclavicle lhumerus
    lhumerus lradius
    lradius lwrist
    lwrist lhand lthumb
    lhand lfingers
    rclavicle rhumerus
    rhumerus rradius
    rradius rwrist
    rwrist rhand rthumb
    rhand rfingers
  end

#!OML:ASF H:\Terrain\Walking\May29\JustinRory\rory.ASF
:FULLY-SPECIFIED
:DEGREES
174
root 12.0279 12.9247 3.48037 182.851 -36.7185 179.303
lowerback 44.7791 1.81939 -1.26677
upperback 9.74655 -2.11712 -5.48712
thorax -10.1613 -2.03368 -4.14127
lowerneck 8.75416 25.6712 -4.39545
upperneck -0.152465 33.2743 -28.2043
head 2.91384 17.0768 -7.05412
rclavicle -3.97569e-014 -2.38542e-015
rhumerus 12.5395 11.4021 -52.6141
rradius 47.8942
rwrist -5.321
rhand 1.61197 387
rfingers 7.12502
rthumb 27.1334 -1.06938
lclavicle -3.97569e-014 -2.38542e-015
lhumerus 4.99706 24.3216 77.6646
lradius 74.8209
lwrist 11.659
lhand -27.6285 28.6146
lfingers 7.12502
lthumb -1.02711 58.5919
rfemur -59.1579 -12.4209 -4.29999
rtibia 100.21
rfoot -20.3917 -8.31376
rtoes 9.08037
lfemur -67.6102 11.9524 -4.15609
ltibia 93.636
lfoot -18.1543 -18.9786
ltoes -10.4334
175
root 12.0159 12.8501 3.49611 182.198 -37.1834 180.744
lowerback 45.5816 1.24005 -0.0130735
upperback 9.16585 -2.19033 -5.54018
thorax -11.0968 -2.03441 -4.81061
lowerneck 9.893 25.7557 -4.35094
upperneck -0.892771 33.029 -28.2862
head 2.49989 17.1332 -7.32226
rclavicle 6.83819e-014 9.54166e-015
rhumerus 12.5909 11.7438 -52.6255
rradius 48.0981
rwrist -5.89881
rhand 0.492543 386.956
rfingers 7.12502
rthumb 26.0621 -1.27661
lclavicle 6.83819e-014 9.54166e-015
lhumerus 5.00744 23.2591 76.341
lradius 74.4936
lwrist 11.614
lhand -26.9833 28.9142
lfingers 7.12502
lthumb -0.403914 58.8936
rfemur -60.4129 -11.4969 -2.45809
rtibia 99.0377
rfoot -20.8037 -8.25012
rtoes 7.83783
lfemur -69.1162 12.5969 -2.99938
ltibia 94.4197
lfoot -16.1959 -20.7059
ltoes -6.06075
176
root 11.9899 12.7441 3.5036 182.277 -37.6649 181.137
lowerback 45.6728 0.803523 0.283124
upperback 8.9199 -2.54363 -5.66042
thorax -11.4582 -2.17107 -4.93301
lowerneck 10.7713 25.9331 -4.74002
upperneck -1.99122 32.8156 -28.493
head 1.97823 17.2307 -7.58684
rclavicle -6.36111e-015 -6.83819e-014
rhumerus 13.3972 12.2143 -52.6464
rradius 48.1796
rwrist -5.99962
rhand -0.544727 386.806
rfingers 7.12502
rthumb 25.0685 -1.56834
lclavicle -6.36111e-015 -6.83819e-014
lhumerus 5.3215 22.9313 75.4037
lradius 74.0458
lwrist 11.4244
lhand -27.8292 28.3089
lfingers 7.12502
lthumb -1.22099 58.2851
rfemur -61.8129 -11.1133 -1.71605
rtibia 97.9504
rfoot -20.7014 -8.69758
rtoes 4.15702
lfemur -70.5925 13.0018 -2.98574
ltibia 95.3473
lfoot -15.4473 -21.4057
ltoes -4.87146
177
root 11.9584 12.6672 3.49384 182.862 -38.1034 180.651
lowerback 45.4171 0.630363 -0.286118
upperback 8.89679 -3.01115 -5.80738
thorax -11.4495 -2.35944 -4.58374
lowerneck 11.5214 26.274 -5.32953
upperneck -3.31825 32.7613 -28.9855
head 1.45165 17.4358 -7.90309
rclavicle 5.56597e-014 6.04305e-014
rhumerus 14.5621 12.4716 -52.934
rradius 48.1766
rwrist -5.40368
rhand -1.36508 386.933
rfingers 7.12502
rthumb 24.2822 -1.54954
lclavicle 5.56597e-014 6.04305e-014
lhumerus 6.07735 23.125 75.1024
lradius 73.3981
lwrist 10.6316
lhand -28.48 26.2564
lfingers 7.12502
lthumb -1.84948 56.2281
rfemur -62.8789 -10.695 -2.00843
rtibia 97.1099
rfoot -20.3962 -9.99858
rtoes -2.28896
lfemur -71.5842 12.8664 -3.55401
ltibia 96.2279
lfoot -16.1395 -21.2961
ltoes -6.52854
178
root 11.9183 12.6241 3.47694 183.655 -38.4713 179.623
lowerback 44.9956 0.621765 -0.974595
upperback 9.0778 -3.37755 -6.06523
thorax -11.1481 -2.51869 -4.34574
lowerneck 12.4379 26.4811 -5.39784
upperneck -4.53543 32.5984 -30.0059
head 1.09049 17.6021 -8.40714
rclavicle 4.13472e-014 1.49486e-013
rhumerus 15.6017 12.4944 -52.971
rradius 48.1718
rwrist -5.37132
rhand -2.14694 387.271
rfingers 7.12502
rthumb 23.5325 -1.30965
lclavicle 4.13472e-014 1.49486e-013
lhumerus 7.05782 22.9222 74.3537
lradius 72.7558
lwrist 10.4467
lhand -28.0139 25.5156
lfingers 7.12502
lthumb -1.39929 55.4908
rfemur -63.4117 -10.1033 -3.22432
rtibia 96.7308
rfoot -19.9273 -10.7215
rtoes -4.80913
lfemur -72.0174 12.367 -4.57345
ltibia 96.8634
lfoot -17.6779 -20.6052
ltoes -10.8921
